<svg xmlns="http://www.w3.org/2000/svg" x="200px" y="200px" width="200" height="200" viewBox="0 0 48 48">
    <path d="M22.006 31.254c.771 0 1.548-.169 2.274-.518l1.959-.94c2.773-1.331 5.696-2.294 8.657-3.131 4.732-1.337 7.803-4.956 7.605-10.165-.215-5.676-5.324-10.785-11-11-.159-.006-.316-.009-.472-.009-4.956 0-8.397 3.026-9.693 7.614-.836 2.96-1.8 5.883-3.131 8.656l-.94 1.959c-.966 2.012-.556 4.415 1.022 5.994C19.295 30.722 20.641 31.254 22.006 31.254zM19.464 32.79c-.961-.359-1.845-.916-2.591-1.662-.488-.488-.882-1.039-1.205-1.624-1.343 1.157-2.99 2.577-3.901 3.374C11.009 32.299 10.132 32 9.208 32c-.319 0-.642.036-.96.108-1.554.351-2.821 1.632-3.152 3.188-.243 1.145-.025 2.3.615 3.251.509.757 1.257 1.329 2.111 1.628C8.401 41.845 9.978 43 11.792 43c.303 0 .61-.033.912-.097 1.555-.33 2.836-1.597 3.188-3.151.274-1.21.032-2.411-.679-3.396C16.265 35.479 18.099 33.937 19.464 32.79z" fill="#FFFFFF"></path>
</svg>