<svg xmlns="http://www.w3.org/2000/svg" viewBox="0 0 512 512">
    <path fill="#FFFFFF" d="M288.16 146.17c-13.7-2.67-28.58-2.67-37.48-2.67h-58.7v96.13c17.2.57 40.02.9 62.08-.65 45.57-3.2 55.11-12.23 55.58-12.7 16.77-21.88 10.32-54.34.37-70.42-1.83-2.99-8.55-7.1-21.85-9.69"/>
    <path fill="#FFFFFF" d="M506.81 148.08C499.5 72.36 440.34 12.5 365.68 5.29c-72.95-7.05-146.41-7.05-219.36 0C71.66 12.5 12.5 72.36 5.19 148.08c-6.92 71.78-6.92 144.06 0 215.83 7.3 75.72 66.46 135.58 141.12 142.8 72.95 7.05 146.41 7.05 219.36 0 74.66-7.21 133.82-67.07 141.13-142.8 6.93-71.77 6.93-144.05.01-215.83M353.2 259.87c-14.96 19.44-44.64 30.19-93.4 33.83-24.4 1.82-49.09 1.54-67.81.95V396c0 15.19-12.31 27.5-27.5 27.5s-27.5-12.31-27.5-27.5V116c0-15.19 12.31-27.5 27.5-27.5h86.2c24.64 0 82.34 0 106.11 38.42 10.44 16.87 17.02 38.83 18.07 60.26 1.32 27.39-6.17 52.53-21.67 72.69"/>
</svg>